# xmcd CD database file
#
# Track frame offsets:
#	150
#	12882
#	29284
#	47054
#	67542
#	76718
#	98036
#	115362
#	136608
#	156813
#	168266
#	182285
#	193066
#	203536
#
# Disc length: 2867 seconds
#
# Revision: 1
# Processed by: cddbd v1.5.2PL0 Copyright (c) Steve Scherf et al.
# Submitted via: CDex 1.76
#
DISCID=9a0b310e
DTITLE=C.S. Heath and Jonas James - Spiritual Guitar CD2
DYEAR=2005
DGENRE=New Age
TTITLE0=Amazing Grace
TTITLE1=Place In This World
TTITLE2=Swing Low Sweet Chariot
TTITLE3=Lead Me On
TTITLE4=This Little Light Of Mine
TTITLE5=Tea and Sympathy
TTITLE6=Holy, Holy, Holy
TTITLE7=My Will
TTITLE8=How Great Thou Art
TTITLE9=Be Thou My Vision
TTITLE10=Big Yellow Taxi
TTITLE11=Shenandoah
TTITLE12=This is My Father's World
TTITLE13=Scarborough Fair
EXTD=YEAR: 2005
EXTT0=
EXTT1=
EXTT2=
EXTT3=
EXTT4=
EXTT5=
EXTT6=
EXTT7=
EXTT8=
EXTT9=
EXTT10=
EXTT11=
EXTT12=
EXTT13=
PLAYORDER=
